<svg width="1092" height="1092" viewBox="0 0 1092 1092" fill="none" xmlns="http://www.w3.org/2000/svg">
<path d="M764.896 380.27C728.167 271.98 592.694 445.46 511.162 559.55C502.122 572.2 485.396 570.98 477.945 556.91C477.906 556.84 477.867 556.76 477.828 556.69C445.693 495.76 413.783 427.59 382.126 359.89C378.839 352.86 372.929 348.17 366.258 347.29L223.637 328.46L201.342 325.64C187.903 323.94 176.824 337.25 181.398 350.32C181.437 350.42 181.466 350.52 181.505 350.61C234.013 495.84 410.233 767.66 463.814 775.14C523.217 783.43 550.943 709.43 582.639 651.62C703.308 431.59 731.005 425.11 713.061 503.07C704.693 539.39 745.625 550.94 754.831 514.8C769.197 458.46 774.687 409.13 764.896 380.28V380.27Z" fill="url(#paint0_linear_5_56)"/>
<path d="M931.577 364.81C884.014 234.98 679.648 155.51 568.615 137.25C493.657 124.91 229.995 86.04 180.198 244.99C175.712 259.31 171.782 283.56 173.352 298.51C181.466 375.86 186.645 355.78 191.677 347.43C196.71 339.08 205.409 333.68 215.015 334.14C221.676 334.46 227.225 334.73 227.225 334.73C268.928 338.3 454.246 391.57 345.164 331.84C320.333 318.24 352.956 315.05 354.146 314.75C372.032 310.2 368.56 310.53 394.161 306.77C997.807 200.54 974.05 436.81 524.309 780.71C482.031 813.05 519.413 877.92 556.931 852.39C678.985 769.33 986.104 513.64 931.577 364.81Z" fill="url(#paint1_linear_5_56)"/>
<path d="M737.843 869.681C755.512 869.681 769.836 854.994 769.836 836.876C769.836 818.758 755.512 804.071 737.843 804.071C720.174 804.071 705.85 818.758 705.85 836.876C705.85 854.994 720.174 869.681 737.843 869.681Z" fill="#5536D1"/>
<defs>
<linearGradient id="paint0_linear_5_56" x1="458.528" y1="278.27" x2="546.245" y2="763.458" gradientUnits="userSpaceOnUse">
<stop offset="0.0769231" stop-color="#FF7300"/>
<stop offset="0.346154" stop-color="#EA9502"/>
<stop offset="0.586538" stop-color="#E59E03"/>
<stop offset="0.836538" stop-color="#E5C500"/>
</linearGradient>
<linearGradient id="paint1_linear_5_56" x1="853.947" y1="-179.98" x2="389.322" y2="604.859" gradientUnits="userSpaceOnUse">
<stop offset="0.355769" stop-color="#4B04B5" stop-opacity="0.8"/>
<stop offset="0.600962" stop-color="#5536D1"/>
</linearGradient>
</defs>
</svg>
